<svg width="512" height="512" viewBox="0 0 512 512" fill="none" xmlns="http://www.w3.org/2000/svg">
<g clip-path="url(#clip0_3_40)">
<path fill-rule="evenodd" clip-rule="evenodd" d="M345.814 149.854L376.032 142.929C382.805 141.37 389.621 145.638 391.184 152.412L395.587 171.677L340.721 184.237L336.316 164.985C334.761 158.194 339.025 151.396 345.817 149.836L345.814 149.854ZM439.969 392.456C476.419 541.098 142.804 563.967 179.792 354.198L222.665 111.054C253.035 -61.1798 513.473 -15.2574 483.104 156.976C478.842 181.149 442.082 174.667 446.345 150.494C468.146 26.856 281.207 -6.10621 259.407 117.532L216.534 360.677C189.813 512.216 425.361 489.534 403.756 401.308L381.823 311.771C375.392 312.701 369.183 308.536 367.712 302.091L363.292 282.822L418.157 270.262L422.58 289.517C423.715 294.502 421.713 299.477 417.901 302.397L439.957 392.45L439.969 392.456ZM399.753 189.874L404.797 211.879L349.93 224.453L344.885 202.448L399.75 189.888L399.753 189.874ZM408.96 230.063L414.005 252.068L359.127 264.626L354.1 242.624L408.968 230.051L408.96 230.063Z" fill="#00B3A6" fill-opacity="0.7"/>
<path fill-rule="evenodd" clip-rule="evenodd" d="M153.153 152.396L179.18 135.553C185.012 131.772 192.876 133.451 196.662 139.282L207.388 155.88L160.128 186.448L149.403 169.863C145.619 164.014 147.301 156.167 153.15 152.378L153.153 152.396ZM324.605 348.164C409.695 475.375 104.022 610.969 67.0337 401.2L24.1607 158.055C-6.20869 -14.1785 254.23 -60.1009 284.6 112.133C288.862 136.305 252.103 142.787 247.84 118.614C226.039 -5.02413 39.1013 27.9381 60.9021 151.576L103.775 394.721C130.495 546.26 344.081 444.384 293.604 368.868L242.37 292.233C236.644 295.306 229.386 293.515 225.799 287.962L215.055 271.368L262.316 240.8L273.057 257.381C275.828 261.677 275.649 267.037 273.066 271.085L324.591 348.163L324.605 348.164ZM217.527 171.555L229.793 190.507L182.535 221.088L170.268 202.136L217.529 171.568L217.527 171.555ZM239.924 206.171L252.191 225.123L204.917 255.693L192.669 236.737L239.927 206.156L239.924 206.171Z" fill="#019592" fill-opacity="0.7"/>
</g>
<defs>
<clipPath id="clip0_3_40">
<rect width="512" height="512" fill="white"/>
</clipPath>
</defs>
</svg>
