<svg width="15" height="14" viewBox="0 0 15 14" fill="none" xmlns="http://www.w3.org/2000/svg">
<path d="M6.58663 1.04906C6.93899 0.25857 8.06101 0.258571 8.41337 1.04906L9.61338 3.74117C9.75871 4.0672 10.0668 4.29105 10.4218 4.32852L13.353 4.63788C14.2136 4.72872 14.5604 5.79583 13.9175 6.37521L11.7279 8.3484C11.4628 8.58737 11.3451 8.94955 11.4191 9.29874L12.0307 12.1821C12.2103 13.0287 11.3025 13.6882 10.5528 13.2558L7.99962 11.7832C7.69041 11.6048 7.30959 11.6048 7.00038 11.7832L4.44716 13.2558C3.69746 13.6882 2.78973 13.0287 2.9693 12.1821L3.58086 9.29874C3.65492 8.94955 3.53724 8.58737 3.27207 8.3484L1.08254 6.37521C0.43963 5.79583 0.786352 4.72872 1.64704 4.63788L4.57821 4.32852C4.9332 4.29105 5.24129 4.0672 5.38662 3.74117L6.58663 1.04906Z" fill="#70EFDE"/>
</svg>
