<svg width="32" height="32" viewBox="0 0 32 32" fill="none" xmlns="http://www.w3.org/2000/svg">
<path d="M15.0866 2.04906C15.439 1.25857 16.561 1.25857 16.9134 2.04906L20.1853 9.38939C20.3307 9.71542 20.6387 9.93926 20.9937 9.97673L28.9859 10.8203C29.8466 10.9111 30.1933 11.9782 29.5504 12.5576L23.5804 17.9377C23.3152 18.1767 23.1976 18.5388 23.2716 18.888L24.9391 26.7497C25.1187 27.5963 24.2109 28.2558 23.4612 27.8234L16.4996 23.8082C16.1904 23.6298 15.8096 23.6298 15.5004 23.8082L8.53877 27.8234C7.78907 28.2558 6.88134 27.5963 7.06091 26.7497L8.72838 18.888C8.80245 18.5388 8.68476 18.1767 8.4196 17.9377L2.44962 12.5576C1.80671 11.9782 2.15343 10.9111 3.01411 10.8203L11.0063 9.97673C11.3613 9.93926 11.6693 9.71542 11.8147 9.38939L15.0866 2.04906Z" fill="url(#paint0_linear_22_177)"/>
<defs>
<linearGradient id="paint0_linear_22_177" x1="32" y1="16" x2="0" y2="16" gradientUnits="userSpaceOnUse">
<stop stop-color="#018786"/>
<stop offset="0.5" stop-color="#019592"/>
<stop offset="0.5" stop-color="#70EFDE"/>
<stop offset="1" stop-color="#70EFDE"/>
</linearGradient>
</defs>
</svg>
